<svg xmlns="http://www.w3.org/2000/svg" viewBox="0 0 320 200" role="img" aria-label="">
  <defs><linearGradient id="g" x1="0" y1="0" x2="1" y2="1"><stop offset="0" stop-color="#eef2f9"/><stop offset="1" stop-color="#dde5f2"/></linearGradient></defs>
  <rect width="320" height="200" fill="url(#g)"/>
  <rect x="70" y="18" width="180" height="164" rx="6" fill="#fff" stroke="#c9d4e6"/>
  <text x="160" y="44" text-anchor="middle" font-family="Georgia, serif" font-size="13" fill="#0f1b33">La Révolution française</text>
  <rect x="86" y="58" width="148" height="3.4" rx="1.7" fill="#9fb0c9"/><rect x="86" y="68" width="148" height="3.4" rx="1.7" fill="#9fb0c9"/><rect x="86" y="78" width="148" height="3.4" rx="1.7" fill="#9fb0c9"/><rect x="86" y="88" width="96" height="3.4" rx="1.7" fill="#9fb0c9"/><rect x="86" y="98" width="148" height="3.4" rx="1.7" fill="#9fb0c9"/><rect x="86" y="108" width="148" height="3.4" rx="1.7" fill="#9fb0c9"/><rect x="86" y="118" width="148" height="3.4" rx="1.7" fill="#9fb0c9"/><rect x="86" y="128" width="96" height="3.4" rx="1.7" fill="#9fb0c9"/><rect x="86" y="138" width="148" height="3.4" rx="1.7" fill="#9fb0c9"/><rect x="86" y="148" width="148" height="3.4" rx="1.7" fill="#9fb0c9"/><rect x="86" y="158" width="148" height="3.4" rx="1.7" fill="#9fb0c9"/>
</svg>